<mxfile host="app.diagrams.net" modified="2023-09-11T04:34:33.179Z" agent="Mozilla/5.0 (Macintosh; Intel Mac OS X 10_15_7) AppleWebKit/537.36 (KHTML, like Gecko) Chrome/113.0.0.0 Safari/537.36 Edg/113.0.1774.57" etag="fN9L8gZKbtZ1tkhsHv27" version="21.7.2" type="github">
  <diagram name="Page-1" id="Hr2RtcKhyDHUeB_40bp3">
    <mxGraphModel dx="1316" dy="1042" grid="1" gridSize="10" guides="1" tooltips="1" connect="1" arrows="1" fold="1" page="1" pageScale="1" pageWidth="850" pageHeight="1100" math="0" shadow="0">
      <root>
        <mxCell id="0" />
        <mxCell id="1" parent="0" />
        <mxCell id="n1CQJEEDBxQEsBh69DtY-2" value="" style="outlineConnect=0;dashed=0;verticalLabelPosition=bottom;verticalAlign=top;align=center;html=1;shape=mxgraph.aws3.lambda_function;fillColor=#F58534;gradientColor=none;" parent="1" vertex="1">
          <mxGeometry x="454" y="510.5" width="69" height="72" as="geometry" />
        </mxCell>
        <mxCell id="n1CQJEEDBxQEsBh69DtY-5" value="" style="outlineConnect=0;dashed=0;verticalLabelPosition=bottom;verticalAlign=top;align=center;html=1;shape=mxgraph.aws3.cloudfront;fillColor=#F58536;gradientColor=none;" parent="1" vertex="1">
          <mxGeometry x="278" y="130" width="76.5" height="93" as="geometry" />
        </mxCell>
        <mxCell id="n1CQJEEDBxQEsBh69DtY-7" value="" style="outlineConnect=0;dashed=0;verticalLabelPosition=bottom;verticalAlign=top;align=center;html=1;shape=mxgraph.aws3.s3;fillColor=#E05243;gradientColor=none;" parent="1" vertex="1">
          <mxGeometry x="450.25" y="309.5" width="76.5" height="93" as="geometry" />
        </mxCell>
        <mxCell id="n1CQJEEDBxQEsBh69DtY-9" value="Resize Image" style="text;html=1;align=center;verticalAlign=middle;resizable=0;points=[];autosize=1;strokeColor=none;fillColor=none;" parent="1" vertex="1">
          <mxGeometry x="507.5" y="450" width="100" height="30" as="geometry" />
        </mxCell>
        <mxCell id="n1CQJEEDBxQEsBh69DtY-11" value="Read Image" style="text;html=1;align=center;verticalAlign=middle;resizable=0;points=[];autosize=1;strokeColor=none;fillColor=none;" parent="1" vertex="1">
          <mxGeometry x="171.75" y="130" width="90" height="30" as="geometry" />
        </mxCell>
        <mxCell id="n1CQJEEDBxQEsBh69DtY-12" value="User" style="shape=umlActor;verticalLabelPosition=bottom;verticalAlign=top;html=1;outlineConnect=0;" parent="1" vertex="1">
          <mxGeometry x="131.75" y="516.5" width="30" height="60" as="geometry" />
        </mxCell>
        <mxCell id="n1CQJEEDBxQEsBh69DtY-15" value="CloudFront" style="text;html=1;align=center;verticalAlign=middle;resizable=0;points=[];autosize=1;strokeColor=none;fillColor=none;" parent="1" vertex="1">
          <mxGeometry x="274.5" y="90" width="80" height="30" as="geometry" />
        </mxCell>
        <mxCell id="n1CQJEEDBxQEsBh69DtY-17" value="S3 Application" style="text;html=1;align=center;verticalAlign=middle;resizable=0;points=[];autosize=1;strokeColor=none;fillColor=none;" parent="1" vertex="1">
          <mxGeometry x="530" y="160" width="100" height="30" as="geometry" />
        </mxCell>
        <mxCell id="n1CQJEEDBxQEsBh69DtY-18" value="" style="outlineConnect=0;dashed=0;verticalLabelPosition=bottom;verticalAlign=top;align=center;html=1;shape=mxgraph.aws3.api_gateway;fillColor=#D9A741;gradientColor=none;" parent="1" vertex="1">
          <mxGeometry x="276.25" y="500" width="76.5" height="93" as="geometry" />
        </mxCell>
        <mxCell id="n1CQJEEDBxQEsBh69DtY-19" value="API Gateway" style="text;html=1;align=center;verticalAlign=middle;resizable=0;points=[];autosize=1;strokeColor=none;fillColor=none;" parent="1" vertex="1">
          <mxGeometry x="269.5" y="610" width="90" height="30" as="geometry" />
        </mxCell>
        <mxCell id="n1CQJEEDBxQEsBh69DtY-24" value="Upload Image" style="text;html=1;align=center;verticalAlign=middle;resizable=0;points=[];autosize=1;strokeColor=none;fillColor=none;" parent="1" vertex="1">
          <mxGeometry x="166.75" y="500" width="100" height="30" as="geometry" />
        </mxCell>
        <mxCell id="n1CQJEEDBxQEsBh69DtY-25" value="" style="outlineConnect=0;dashed=0;verticalLabelPosition=bottom;verticalAlign=top;align=center;html=1;shape=mxgraph.aws3.cloudwatch;fillColor=#759C3E;gradientColor=none;" parent="1" vertex="1">
          <mxGeometry x="607.5" y="720" width="82.5" height="93" as="geometry" />
        </mxCell>
        <mxCell id="n1CQJEEDBxQEsBh69DtY-26" value="CloudWatch" style="text;html=1;align=center;verticalAlign=middle;resizable=0;points=[];autosize=1;strokeColor=none;fillColor=none;" parent="1" vertex="1">
          <mxGeometry x="600" y="820" width="90" height="30" as="geometry" />
        </mxCell>
        <mxCell id="n1CQJEEDBxQEsBh69DtY-28" value="Monitor&lt;br&gt;" style="text;html=1;align=center;verticalAlign=middle;resizable=0;points=[];autosize=1;strokeColor=none;fillColor=none;" parent="1" vertex="1">
          <mxGeometry x="615" y="690" width="60" height="30" as="geometry" />
        </mxCell>
        <mxCell id="n1CQJEEDBxQEsBh69DtY-29" value="User" style="shape=umlActor;verticalLabelPosition=bottom;verticalAlign=top;html=1;outlineConnect=0;" parent="1" vertex="1">
          <mxGeometry x="131.75" y="146.5" width="30" height="60" as="geometry" />
        </mxCell>
        <mxCell id="zB1ALJJBzp2TRj6HRCjQ-2" value="" style="outlineConnect=0;dashed=0;verticalLabelPosition=bottom;verticalAlign=top;align=center;html=1;shape=mxgraph.aws3.dynamo_db;fillColor=#2E73B8;gradientColor=none;" parent="1" vertex="1">
          <mxGeometry x="737.25" y="720" width="72" height="81" as="geometry" />
        </mxCell>
        <mxCell id="zB1ALJJBzp2TRj6HRCjQ-3" value="Dynamo DB" style="text;html=1;align=center;verticalAlign=middle;resizable=0;points=[];autosize=1;strokeColor=none;fillColor=none;" parent="1" vertex="1">
          <mxGeometry x="728.25" y="810" width="90" height="30" as="geometry" />
        </mxCell>
        <mxCell id="zB1ALJJBzp2TRj6HRCjQ-5" value="Meta Data" style="text;html=1;align=center;verticalAlign=middle;resizable=0;points=[];autosize=1;strokeColor=none;fillColor=none;" parent="1" vertex="1">
          <mxGeometry x="733.75" y="690" width="80" height="30" as="geometry" />
        </mxCell>
        <mxCell id="Y1Ew_5oxsc8gn9YXY2a8-1" value="" style="outlineConnect=0;dashed=0;verticalLabelPosition=bottom;verticalAlign=top;align=center;html=1;shape=mxgraph.aws3.s3;fillColor=#E05243;gradientColor=none;" vertex="1" parent="1">
          <mxGeometry x="450.25" y="130" width="76.5" height="93" as="geometry" />
        </mxCell>
        <mxCell id="Y1Ew_5oxsc8gn9YXY2a8-3" value="S3 CMS" style="text;html=1;align=center;verticalAlign=middle;resizable=0;points=[];autosize=1;strokeColor=none;fillColor=none;" vertex="1" parent="1">
          <mxGeometry x="537.5" y="347" width="70" height="30" as="geometry" />
        </mxCell>
        <mxCell id="Y1Ew_5oxsc8gn9YXY2a8-4" value="Admin" style="shape=umlActor;verticalLabelPosition=bottom;verticalAlign=top;html=1;outlineConnect=0;" vertex="1" parent="1">
          <mxGeometry x="131.75" y="326" width="30" height="60" as="geometry" />
        </mxCell>
        <mxCell id="Y1Ew_5oxsc8gn9YXY2a8-6" value="" style="outlineConnect=0;dashed=0;verticalLabelPosition=bottom;verticalAlign=top;align=center;html=1;shape=mxgraph.aws3.lambda_function;fillColor=#F58534;gradientColor=none;" vertex="1" parent="1">
          <mxGeometry x="281.75" y="326" width="69" height="72" as="geometry" />
        </mxCell>
        <mxCell id="Y1Ew_5oxsc8gn9YXY2a8-11" value="" style="edgeStyle=none;orthogonalLoop=1;jettySize=auto;html=1;endArrow=classic;startArrow=classic;endSize=8;startSize=8;rounded=0;" edge="1" parent="1">
          <mxGeometry width="100" relative="1" as="geometry">
            <mxPoint x="491.75" y="240" as="sourcePoint" />
            <mxPoint x="491.75" y="300" as="targetPoint" />
            <Array as="points" />
          </mxGeometry>
        </mxCell>
        <mxCell id="Y1Ew_5oxsc8gn9YXY2a8-13" value="Copy or Remove image from action&lt;br&gt;&amp;nbsp;between S3 of CMS and Appication" style="text;html=1;align=center;verticalAlign=middle;resizable=0;points=[];autosize=1;strokeColor=none;fillColor=none;" vertex="1" parent="1">
          <mxGeometry x="206.25" y="280" width="220" height="40" as="geometry" />
        </mxCell>
        <mxCell id="Y1Ew_5oxsc8gn9YXY2a8-14" value="" style="edgeStyle=none;orthogonalLoop=1;jettySize=auto;html=1;rounded=0;" edge="1" parent="1">
          <mxGeometry width="100" relative="1" as="geometry">
            <mxPoint x="361.75" y="362" as="sourcePoint" />
            <mxPoint x="431.75" y="362" as="targetPoint" />
            <Array as="points" />
          </mxGeometry>
        </mxCell>
        <mxCell id="Y1Ew_5oxsc8gn9YXY2a8-15" value="" style="edgeStyle=none;orthogonalLoop=1;jettySize=auto;html=1;rounded=0;" edge="1" parent="1">
          <mxGeometry width="100" relative="1" as="geometry">
            <mxPoint x="371.75" y="176" as="sourcePoint" />
            <mxPoint x="431.75" y="176" as="targetPoint" />
            <Array as="points" />
          </mxGeometry>
        </mxCell>
        <mxCell id="Y1Ew_5oxsc8gn9YXY2a8-16" value="" style="edgeStyle=none;orthogonalLoop=1;jettySize=auto;html=1;rounded=0;" edge="1" parent="1">
          <mxGeometry width="100" relative="1" as="geometry">
            <mxPoint x="181.75" y="361.5" as="sourcePoint" />
            <mxPoint x="261.75" y="362" as="targetPoint" />
            <Array as="points" />
          </mxGeometry>
        </mxCell>
        <mxCell id="Y1Ew_5oxsc8gn9YXY2a8-17" value="" style="edgeStyle=none;orthogonalLoop=1;jettySize=auto;html=1;rounded=0;" edge="1" parent="1">
          <mxGeometry width="100" relative="1" as="geometry">
            <mxPoint x="181.75" y="176" as="sourcePoint" />
            <mxPoint x="251.75" y="176" as="targetPoint" />
            <Array as="points" />
          </mxGeometry>
        </mxCell>
        <mxCell id="Y1Ew_5oxsc8gn9YXY2a8-20" value="" style="edgeStyle=none;orthogonalLoop=1;jettySize=auto;html=1;rounded=0;" edge="1" parent="1">
          <mxGeometry width="100" relative="1" as="geometry">
            <mxPoint x="492" y="500" as="sourcePoint" />
            <mxPoint x="491.75" y="410.5" as="targetPoint" />
            <Array as="points" />
          </mxGeometry>
        </mxCell>
        <mxCell id="Y1Ew_5oxsc8gn9YXY2a8-21" value="" style="edgeStyle=none;orthogonalLoop=1;jettySize=auto;html=1;rounded=0;" edge="1" parent="1">
          <mxGeometry width="100" relative="1" as="geometry">
            <mxPoint x="371.75" y="550" as="sourcePoint" />
            <mxPoint x="431.75" y="550" as="targetPoint" />
            <Array as="points" />
          </mxGeometry>
        </mxCell>
        <mxCell id="Y1Ew_5oxsc8gn9YXY2a8-22" value="" style="edgeStyle=none;orthogonalLoop=1;jettySize=auto;html=1;rounded=0;" edge="1" parent="1">
          <mxGeometry width="100" relative="1" as="geometry">
            <mxPoint x="176.75" y="550" as="sourcePoint" />
            <mxPoint x="256.75" y="550.5" as="targetPoint" />
            <Array as="points" />
          </mxGeometry>
        </mxCell>
      </root>
    </mxGraphModel>
  </diagram>
</mxfile>
